<svg aria-hidden="true" style="position:absolute;width:0;height:0;overflow:hidden" xmlns="http://www.w3.org/2000/svg">
  <defs>
    <symbol id="aws" viewBox="0 0 77 32">
      <path fill="#737373" style="fill:var(--color1, #737373)"
        d="M26.863 11.677c-.059 1.848.872 2.666.895 3.186a.664.664 0 0 1-.334.51l-.003.002-1.053.731a.875.875 0 0 1-.462.156h-.002c-.036-.002-.674.149-1.685-2.09a6.506 6.506 0 0 1-2.256 1.777l-.039.017a6.423 6.423 0 0 1-2.753.61l-.109-.001h.006c-1.339.072-4.97-.754-4.783-4.587-.131-3.123 2.802-5.063 5.836-4.899.584.002 1.778.03 3.866.512V6.326c.221-2.159-1.209-3.833-3.687-3.582-.198.001-1.596-.041-3.772.825-.605.276-.683.23-.884.23-.61 0-.359-1.752-.242-1.974.429-.522 2.951-1.497 5.425-1.483A6.329 6.329 0 0 1 25.42 1.76l-.011-.009a5.712 5.712 0 0 1 1.156 1.948l.012.04a5.586 5.586 0 0 1 .284 2.304l.001-.02v5.653zm-7.111 2.642c2.669-.038 3.798-1.629 4.056-2.486.202-.82.169-1.339.169-2.235a14.227 14.227 0 0 0-3.255-.398c-1.246-.093-3.523.459-3.434 2.632-.102 1.37.915 2.562 2.465 2.487zM33.816 16.2c-.647.058-.948-.397-1.043-.846L28.675 1.921a3.007 3.007 0 0 1-.157-.687l-.001-.014a.378.378 0 0 1 .07-.281l-.001.001a.38.38 0 0 1 .247-.149h.002c.019-.003-.176 0 1.831 0 .722-.072.957.492 1.033.846l2.939 11.49 2.729-11.49c.044-.263.242-.903 1.053-.836h1.412c.179-.015.914-.041 1.043.846l2.75 11.637 3.034-11.637c.039-.178.224-.928 1.043-.846h1.622c.07-.01.506-.066.432.7-.035.151.281-.87-4.34 13.862-.095.45-.397.905-1.044.846h-1.538c-.9.094-1.03-.788-1.043-.877L39.062 4.144 36.365 15.32c-.013.089-.142.971-1.043.877l-1.506.001zm22.502.459c-.484.001-2.791-.024-4.72-1.003a1.053 1.053 0 0 1-.467-.385l-.002-.004a1.027 1.027 0 0 1-.173-.572v-.011.001-.877c0-.689.51-.563.727-.48.826.331 1.356.583 2.371.783 3.016.615 4.342-.188 4.667-.366 1.082-.637 1.168-2.095.432-2.851-.862-.717-1.273-.744-4.371-1.713-.382-.106-3.596-1.11-3.603-4.272-.05-2.304 2.061-4.584 5.72-4.565 1.042-.001 3.82.337 4.572 1.274a.98.98 0 0 1 .158.574v.825c0 .362-.134.543-.401.543-.634-.07-1.76-.911-4.045-.877-.567-.029-3.282.075-3.16 2.037-.036 1.547 2.19 2.127 2.444 2.194 3 .894 4.003 1.043 5.194 2.413 1.411 1.815.65 3.941.358 4.523-1.57 3.059-5.63 2.81-5.699 2.808zm3.308 8.555c-5.762 4.219-14.127 6.466-21.269 6.466a38.787 38.787 0 0 1-26.106-9.85c-.537-.48-.063-1.139.59-.773C20.324 25.373 29.3 27.92 38.87 27.92h.048-.002a52.057 52.057 0 0 0 20.22-4.172l-.341.129c.969-.408 1.791.636.833 1.336zm2.402-2.715c-.737-.94-4.878-.439-6.732-.219-.559.062-.653-.418-.147-.773 3.297-2.298 8.712-1.64 9.334-.867.621.773-.169 6.152-3.255 8.722-.474.397-.927.188-.717-.334.695-1.734 2.254-5.588 1.517-6.529z" />
    </symbol>
    <symbol id="business" viewBox="0 0 33 32">
      <path fill="#0d5c63" style="fill:var(--color2, #0d5c63)"
        d="M29.059 8.35h-3.38V4.97a2.253 2.253 0 0 0-2.253-2.253H9.907A2.253 2.253 0 0 0 7.654 4.97v3.38h-3.38a3.38 3.38 0 0 0-3.38 3.38v15.771a2.253 2.253 0 0 0 2.253 2.253h27.039a2.253 2.253 0 0 0 2.253-2.253V11.729a3.38 3.38 0 0 0-3.38-3.38zM9.907 4.97h13.519v3.38H9.908V4.97zm20.278 22.532H3.147V17.363h9.013v5.633h9.013v-5.633h9.012v10.14zM14.413 17.363h4.507v3.38h-4.507v-3.38zM3.148 15.109V11.73c0-.622.504-1.127 1.127-1.127H29.06c.622 0 1.127.504 1.127 1.127v3.38H3.148z" />
    </symbol>
    <symbol id="droid" viewBox="0 0 64 32">
      <path fill="#737373" style="fill:var(--color1, #737373)"
        d="M45.995 12.345a3.72 3.72 0 0 0-2.653 1.118c-2.499-1.736-5.865-2.854-9.596-2.973l1.938-8.772 6.173 1.391a2.755 2.755 0 0 0 2.744 2.756c1.539 0 2.778-1.273 2.778-2.791S46.147.283 44.601.283c-1.078 0-2.009.654-2.471 1.547L35.312.312c-.343-.091-.679.155-.77.499l-2.128 9.672c-3.702.155-7.034 1.272-9.54 3.008a3.7 3.7 0 0 0-2.682-1.146h-.006c-3.891 0-5.165 5.244-1.603 7.036a7.899 7.899 0 0 0-.182 1.736c0 5.891 6.607 10.664 14.719 10.664 8.147 0 14.754-4.773 14.754-10.663a6.73 6.73 0 0 0-.217-1.764c3.492-1.799 2.205-7.008-1.666-7.008zm-21.76 7.409a2.774 2.774 0 0 1 2.779-2.791c1.511 0 2.743 1.237 2.743 2.791a2.755 2.755 0 0 1-2.744 2.756 2.762 2.762 0 0 1-2.779-2.756zm14.999 6.572c-2.547 2.559-9.735 2.559-12.283 0-.281-.245-.281-.682 0-.963a.673.673 0 0 1 .924 0c1.946 2.003 8.399 2.038 10.428 0a.673.673 0 0 1 .924 0c.287.281.287.717.007.963zm-.056-3.81a2.754 2.754 0 0 1-2.744-2.756c0-1.547 1.232-2.791 2.744-2.791h.005a2.773 2.773 0 0 1 2.773 2.773v.018-.001a2.776 2.776 0 0 1-2.778 2.756z" />
    </symbol>
    <symbol id="environmental" viewBox="0 0 32 32">
      <path fill="#0d5c63" style="fill:var(--color2, #0d5c63)"
        d="M28.393 8.35h-3.38V4.97a2.253 2.253 0 0 0-2.253-2.253H9.241A2.253 2.253 0 0 0 6.988 4.97v3.38h-3.38a3.38 3.38 0 0 0-3.38 3.38v15.771a2.253 2.253 0 0 0 2.253 2.253H29.52a2.253 2.253 0 0 0 2.253-2.253V11.729a3.38 3.38 0 0 0-3.38-3.38zM9.24 4.97h13.519v3.38H9.241V4.97zm20.279 22.532H2.481V17.363h9.013v5.633h9.012v-5.633h9.013v10.14zM13.747 17.363h4.507v3.38h-4.507v-3.38zM2.481 15.109V11.73c0-.622.504-1.127 1.127-1.127h24.785c.622 0 1.127.504 1.127 1.127v3.38H2.481z" />
    </symbol>
    <symbol id="environmental2" viewBox="0 0 33 32">
      <path fill="#0d5c63" style="fill:var(--color2, #0d5c63)"
        d="M10.709 22.663c-.541-.543-.259-.39-1.563-.741-.591-.16-1.112-.466-1.582-.833L4.74 28.042a1 1 0 0 0 .96 1.377l3.279-.125 2.255 2.393a.993.993 0 0 0 1.642-.303l.002-.007 3.239-7.977c-.674.377-1.423.599-2.197.599a4.503 4.503 0 0 1-3.211-1.335zm17.776 5.38-2.823-6.953c-.471.367-.991.673-1.583.833-1.311.353-1.023.199-1.563.74a4.49 4.49 0 0 1-3.202 1.336h-.011.001a4.494 4.494 0 0 1-2.197-.599l3.239 7.977a.995.995 0 0 0 1.644.31l2.255-2.393 3.279.127a1 1 0 0 0 .96-1.377zm-7.454-6.794c.951-.972 1.06-.889 2.413-1.259a2.545 2.545 0 0 0 1.768-1.794l.004-.018c.465-1.775.345-1.56 1.615-2.859.633-.647.88-1.59.648-2.473-.465-1.774-.465-1.527 0-3.302a2.594 2.594 0 0 0-.649-2.474l.001.001c-1.269-1.299-1.149-1.085-1.614-2.86a2.544 2.544 0 0 0-1.754-1.806l-.018-.004C21.71 1.926 21.92 2.05 20.648.75A2.46 2.46 0 0 0 18.21.091l.017-.004c-1.734.475-1.492.475-3.229 0a2.457 2.457 0 0 0-2.419.662l-.001.001c-1.27 1.299-1.06 1.175-2.796 1.651a2.542 2.542 0 0 0-1.767 1.794l-.004.018c-.465 1.775-.345 1.561-1.615 2.86a2.592 2.592 0 0 0-.645 2.492l-.004-.018c.465 1.773.465 1.525 0 3.301a2.59 2.59 0 0 0 .649 2.474l-.001-.001c1.27 1.299 1.149 1.085 1.615 2.86.231.879.9 1.561 1.753 1.806l.018.004c1.393.381 1.497.321 2.413 1.259.449.463 1.076.75 1.77.75.492 0 .949-.144 1.334-.392l-.01.006c.374-.242.832-.386 1.323-.386s.949.144 1.333.392l-.01-.006a2.44 2.44 0 0 0 1.324.386c.694 0 1.321-.287 1.769-.749l.001-.001zM10.743 10.996c0-3.314 2.628-6.001 5.87-6.001s5.87 2.687 5.87 6.001c0 3.314-2.628 6.001-5.87 6.001s-5.87-2.687-5.87-6.001z" />
    </symbol>
    <symbol id="facebook" viewBox="0 0 32 32">
      <path fill="#335bf5" style="fill:var(--color3, #335bf5)"
        d="M30.72 0H1.279C.573 0 0 .572 0 1.279V30.72C0 31.428.572 32 1.28 32h29.44c.708 0 1.28-.572 1.28-1.28V1.279C32 .573 31.428 0 30.721 0h-.001zm-3.696 9.34h-2.556c-2.004 0-2.392.952-2.392 2.352v3.084h4.784l-.624 4.828h-4.16V32h-4.988V19.608h-4.172v-4.832h4.172v-3.56c0-4.132 2.524-6.384 6.212-6.384 1.768 0 3.284.132 3.728.192V9.34h-.004z" />
    </symbol>
    <symbol id="field" viewBox="0 0 32 32">
      <path fill="#ff7b47" style="fill:var(--color4, #ff7b47)"
        d="m29.815 10.365-1.998 3.006c.869 1.697 1.379 3.702 1.379 5.826 0 2.39-.645 4.629-1.77 6.553l.033-.062H4.937c-1.092-1.862-1.736-4.101-1.736-6.491 0-7.18 5.82-13 13-13 2.119 0 4.12.507 5.888 1.407l-.074-.034 3.007-2c-2.48-1.612-5.514-2.571-8.772-2.571C7.275 2.999 0 10.274 0 19.249c0 2.967.795 5.748 2.184 8.142l-.042-.078a3.253 3.253 0 0 0 2.794 1.625H27.455a3.248 3.248 0 0 0 2.806-1.61l.008-.015c1.369-2.331 2.177-5.133 2.177-8.125 0-3.286-.976-6.345-2.653-8.902l.038.062-.017.017zM13.907 21.48c.588.589 1.401.953 2.299.953s1.711-.364 2.299-.953l9.198-13.797-13.796 9.198c-.589.588-.953 1.401-.953 2.3s.364 1.711.953 2.299z" />
    </symbol>
    <symbol id="finance" viewBox="0 0 32 32">
      <path fill="#0d5c63" style="fill:var(--color2, #0d5c63)" opacity=".15"
        d="M29.1 9.167H2.9c-.012 0-.02.008-.02.02v3.603c0 2.363 1.96 4.279 4.372 4.279h.019a4.392 4.392 0 0 0 3.774-2.141l.011-.02a.663.663 0 0 1 1.142-.003l.002.003a4.39 4.39 0 0 0 3.779 2.161h.022H16a4.379 4.379 0 0 0 3.804-2.169.648.648 0 0 1 .556-.32h.024a.64.64 0 0 1 .556.32 4.395 4.395 0 0 0 3.787 2.169h.022-.001c2.412 0 4.372-1.917 4.372-4.28V9.186c0-.012-.008-.02-.02-.02z" />
      <path fill="#0d5c63" style="fill:var(--color2, #0d5c63)"
        d="M30.8 6.326V1.265C30.8.565 30.228 0 29.52 0H2.48C1.772 0 1.2.565 1.2 1.265v5.061A1.27 1.27 0 0 0 0 7.586V12.808c0 1 .212 1.95.594 2.808l-.017-.044c.172.403.384.782.624 1.141v13.632c.005.7.573 1.265 1.273 1.265h27.047c.708 0 1.28-.565 1.28-1.265V16.713a6.99 6.99 0 0 0 1.2-3.923V7.587a1.27 1.27 0 0 0-1.197-1.261h-.003zM4.08 2.845h23.84v3.477H4.08V2.845zm14.48 25.924h-5.12v-4.113h5.12v4.113zm9.376 0H21.12v-5.377a1.271 1.271 0 0 0-1.271-1.265H12.159c-.708 0-1.28.565-1.28 1.265v5.377h-6.8V19.2c.116.055.236.11.36.157a7.172 7.172 0 0 0 2.795.557h.022-.001.012a7.301 7.301 0 0 0 4.372-1.445l-.02.014c.003-.002.008-.003.012-.003s.009.001.012.003a7.19 7.19 0 0 0 1.548.873 7.172 7.172 0 0 0 2.795.557h.022-.001.012a7.301 7.301 0 0 0 4.372-1.445l-.02.014c.003-.002.008-.003.012-.003s.009.001.012.003a7.19 7.19 0 0 0 1.548.873 7.172 7.172 0 0 0 2.795.557h.022-.001a7.29 7.29 0 0 0 2.816-.557c.12-.052.24-.103.36-.159v9.57zM29.12 12.79c0 2.363-1.96 4.279-4.372 4.279h-.021a4.387 4.387 0 0 1-3.776-2.149l-.011-.02a.641.641 0 0 0-.555-.32h-.025a.646.646 0 0 0-.554.317l-.002.003a4.373 4.373 0 0 1-1.585 1.58l-.021.011a4.365 4.365 0 0 1-2.183.578h-.016H16h-.021a4.382 4.382 0 0 1-3.768-2.141l-.011-.02a.663.663 0 0 0-1.142-.003l-.002.003a4.384 4.384 0 0 1-1.588 1.573l-.021.011a4.374 4.374 0 0 1-2.185.577h-.011.001c-2.412 0-4.372-1.917-4.372-4.279V9.187c0-.012.008-.02.02-.02h26.2c.012 0 .02.008.02.02v3.603z" />
    </symbol>
    <symbol id="financial" viewBox="0 0 32 32">
      <path fill="#fff" style="fill:var(--color5, #fff)"
        d="M19.428 9.083h7.998v2.297h-7.998V9.083zm0 5.742h7.998v2.297h-7.998v-2.297zm0 5.742h7.998v2.297h-7.998v-2.297z" />
      <path fill="#fff" style="fill:var(--color5, #fff)"
        d="M29.711 3.341H2.288A2.295 2.295 0 0 0 .003 5.638v20.671c0 .609.241 1.193.67 1.624.413.415.984.672 1.615.673h27.424a2.295 2.295 0 0 0 2.285-2.297V5.638c0-.609-.241-1.193-.67-1.624a2.276 2.276 0 0 0-1.615-.673zM2.288 5.638h12.569v20.671H2.288V5.638zm14.855 20.671V5.638h12.569l.003 20.671H17.144z" />
    </symbol>
    <symbol id="hooli" viewBox="0 0 140 32">
      <path fill="#737373" style="fill:var(--color1, #737373)"
        d="m44.119 29.646 5.636.117a38.787 38.787 0 0 1-5.844-2.555l.209.103v2.335zm8.49-.774v.773l-2.854.117c5.371 1.824 10.286 2.072 13.935 1.05-2.928.029-6.738-.379-11.08-1.941zm60.168-16.813c2.34 0 4.252-1.883 4.252-4.218s-1.898-3.575-4.252-3.575c-2.34 0-4.252 1.254-4.252 3.575s1.898 4.218 4.252 4.218zm-4.267 17.587h8.518V13.519h-8.519v16.127zm-10.845 0h8.52V1.143l-8.52 3.984v24.518zm-4.561-17.427c-2.678-2.655-7.415-2.495-7.415-2.495s-4.754-.16-7.417 2.496c-2.679 2.656-2.472 4.947-2.472 7.676s-.206 5.006 2.472 7.662c2.678 2.656 7.416 2.496 7.416 2.496s4.752.16 7.416-2.496c2.678-2.656 2.472-4.933 2.472-7.662-.015-2.744.191-5.035-2.472-7.676zm-5.856 10.495c0 .525-.265 1.824-1.574 1.824S84.1 23.24 84.1 22.714v-5.897c0-1.269 1.074-1.59 1.574-1.59s1.574.306 1.574 1.591v5.896zM71.621 12.22c-2.679-2.656-7.417-2.496-7.417-2.496s-4.738-.16-7.415 2.496c-.275.269-.53.555-.766.856l-.014.019c-5.621-4.318-10.668-6.786-15.024-8.917V1.157l-3.31 1.547C29.669-.521 24.578.048 23.356 2.719c0 0-3.664 4.787 9.094 16.171v10.756h8.519v-4.174a42.693 42.693 0 0 1-2.961-2.063l.107.078a90.561 90.561 0 0 1-5.748-4.667l.098.085V14.38c1.927 2.146 4.488 4.582 7.857 7.342l.662.525v-4.349c0-1.007.251-2.656 1.59-2.656s1.559 1.007 1.559 2.189v7.108a38.682 38.682 0 0 0 8.218 4.231l.272.089V15.155c0-2.729-1.971-5.458-5.974-5.458h-.056a6.514 6.514 0 0 0-5.592 3.167l-.016.03V4.969c6.166 3.051 12.346 6.787 14.7 8.508-1.501 2.131-1.369 4.101-1.369 6.378 0 2.729-.206 5.006 2.472 7.662s7.416 2.496 7.416 2.496 4.753.16 7.417-2.496c2.678-2.656 2.457-4.933 2.457-7.662 0-2.7.221-4.992-2.457-7.632zm-39.17-7.093v9.238c-7.166-7.954-5.723-11.091-5.179-11.544 1.987-1.664 5.518-1.168 9.476.306l-4.296 2zm33.327 17.587c0 .525-.265 1.824-1.574 1.824s-1.574-1.298-1.574-1.824v-5.897c0-1.269 1.074-1.59 1.574-1.59s1.574.306 1.574 1.591v5.896z" />
    </symbol>
    <symbol id="hug" viewBox="0 0 65 32">
      <path fill="#737373" style="fill:var(--color1, #737373)"
        d="M54.187.062c-5.495 3.704-6.079 6.393-6.555 7.215-.456.843-.795 4.168-1.584 5.778-.796 1.631-3.686 2.917-4.495 3.456-.796.539-1.924 2.633-2.849 4.437-7.351-.304-11.383 2.681-17.626 6.469 1.999-.67 2.944-1.154 2.944-1.154 6.406-2.488 9.472-4.721 19.115-3.401.075 0 .129.041.19.055a.547.547 0 0 1 .21.75l.001-.003-3.665 6.621a.813.813 0 0 1-.896.42l.005.001c-8.623-1.645-15.429 1.196-21.685 1.286-4.991.076-6.63-2.316-6.63-2.426 0-.076.041-.117.115-.117 0 0 2.605 0 7.011-1.058 5.005-9.696 9.465-13.09 14.321-13.09 0 0 4.876 0 6.161 4.278 1.55-2.744 1.924-3.401 1.924-3.401.36-.65 2.38-5.335 5.875-9.773C49.576 1.982 52.221.883 54.186.06z" />
    </symbol>
    <symbol id="instagram" viewBox="0 0 32 32">
      <path fill="#e61f5a" style="fill:var(--color6, #e61f5a)"
        d="M16.003 7.796h-.012a8.192 8.192 0 0 0-8.192 8.192v.013V16v.012a8.192 8.192 0 0 0 8.192 8.192h.013-.001.012a8.192 8.192 0 0 0 8.192-8.192v-.013V16v-.012a8.192 8.192 0 0 0-8.192-8.192h-.013.001zm0 13.536a5.342 5.342 0 0 1-5.333-5.331V16a5.342 5.342 0 0 1 5.333-5.332 5.342 5.342 0 0 1 5.332 5.333 5.344 5.344 0 0 1-5.333 5.331zm8.54-15.784c-1.06 0-1.916.856-1.916 1.916s.856 1.916 1.916 1.916h.009a1.91 1.91 0 0 0 1.758-2.662l.005.012a1.919 1.919 0 0 0-1.769-1.183h-.002zm7.452 10.453c0-2.209.02-4.397-.104-6.6-.124-2.56-.708-4.833-2.58-6.705C27.435.82 25.167.24 22.607.116c-2.208-.124-4.396-.103-6.6-.103-2.208 0-4.396-.02-6.6.104-2.56.123-4.833.707-6.704 2.579C.827 4.573.247 6.84.123 9.4-.001 11.608.019 13.796.019 16s-.02 4.396.104 6.6c.124 2.56.707 4.832 2.58 6.704 1.876 1.876 4.144 2.456 6.704 2.58 2.208.124 4.396.104 6.6.104 2.208 0 4.396.02 6.6-.104 2.56-.124 4.832-.707 6.704-2.58 1.876-1.876 2.456-4.144 2.58-6.704.128-2.204.104-4.392.104-6.6zm-3.52 9.431a5.106 5.106 0 0 1-1.207 1.831l-.001.001a5.135 5.135 0 0 1-1.797 1.196l-.035.012c-2.104.836-7.1.648-9.432.648-2.333 0-7.333.188-9.436-.644a5.106 5.106 0 0 1-1.831-1.207l-.001-.001a5.135 5.135 0 0 1-1.196-1.797l-.012-.035c-.832-2.107-.644-7.104-.644-9.436s-.188-7.332.644-9.436c.292-.728.644-1.272 1.208-1.832s1.104-.916 1.832-1.208c2.104-.832 7.104-.644 9.436-.644s7.332-.187 9.436.644a5.096 5.096 0 0 1 1.832 1.208 5.117 5.117 0 0 1 1.208 1.832c.832 2.104.644 7.104.644 9.436 0 2.333.187 7.328-.648 9.432z" />
    </symbol>
    <symbol id="location-big" viewBox="0 0 32 32">
      <path fill="#fff" style="fill:var(--color5, #fff)"
        d="M13.111 18.667c3.554 0 6.444-2.791 6.444-6.222s-2.89-6.222-6.444-6.222-6.444 2.791-6.444 6.222 2.89 6.222 6.444 6.222zm0-9.334c1.777 0 3.222 1.396 3.222 3.111s-1.445 3.111-3.222 3.111-3.222-1.396-3.222-3.111 1.445-3.111 3.222-3.111z" />
      <path fill="#fff" style="fill:var(--color5, #fff)"
        d="M12.193 31.262c.255.183.574.293.918.293s.663-.11.923-.297l-.005.003c.482-.339 11.794-8.479 11.748-18.64 0-6.96-5.683-12.622-12.667-12.622S.443 5.662.443 12.614C.397 22.783 11.71 30.922 12.191 31.262zm.918-28.106c5.239 0 9.5 4.246 9.5 9.475.033 7.002-6.948 13.29-9.5 15.352-2.551-2.064-9.533-8.353-9.5-15.36 0-5.221 4.261-9.467 9.5-9.467z" />
    </symbol>
    <symbol id="lyft" viewBox="0 0 79 32">
      <path fill="#737373" style="fill:var(--color1, #737373)"
        d="M17.085.54h6.84v18.449c0 2.926 1.319 4.667 2.392 5.392-1.117.981-4.502 1.847-7.052-.247-1.495-1.238-2.18-3.298-2.18-5.216V.54zm42.722 15.337v-1.945h2.092V7.143h-2.295C58.716 3.05 55.102.009 50.785.009c-4.976 0-9.029 4.067-9.029 9.079v15.841c1.407.203 3.113-.027 4.545-1.237 1.504-1.238 2.181-3.288 2.181-5.215v-.592h3.412v-6.789h-3.412v-2.06c0-3.059 4.59-3.059 4.59 0v6.815c0 5.003 4.044 9.078 9.03 9.078v-6.762H62.1a2.293 2.293 0 0 1-2.293-2.289zM33.931 7.125v9.989c0 1.361-2.092 1.361-2.092 0V7.125h-6.753v11.73c0 2.104.703 4.773 3.957 5.649 3.253.866 5.117-.937 5.117-.937-.184 1.185-1.275 2.06-3.069 2.237-1.363.141-3.095-.318-3.957-.689v6.214c2.207.663 4.528.867 6.823.415 4.141-.804 6.753-4.278 6.753-8.91V7.081h-6.779v.044z" />
    </symbol>
    <symbol id="navigation-big" viewBox="0 0 32 32">
      <path fill="#0d5c63" style="fill:var(--color2, #0d5c63)"
        d="M31.266.961a1.264 1.264 0 0 0-.621-.356l-.009-.002a1.245 1.245 0 0 0-.725.053l.008-.003L1.715 11.319a1.286 1.286 0 0 0-.6.489 1.361 1.361 0 0 0-.227.756v.003c0 .27.079.535.227.757s.357.393.601.489l12.307 5.12 4.924 12.799c.095.245.252.449.452.597l.004.003c.193.143.434.231.696.24h.002c.273-.006.522-.099.724-.252l-.003.002a1.34 1.34 0 0 0 .456-.621l.003-.009L31.536 2.36c.088-.236.108-.493.061-.741a1.353 1.353 0 0 0-.331-.66l.001.001zM20.1 27.506l-3.577-9.333 6.141-6.387-1.808-1.88-6.192 6.44-8.923-3.773 22.473-8.44-8.115 23.373z" />
    </symbol>
    <symbol id="navigation-small" viewBox="0 0 28 32">
      <path fill="#8ec2f2" style="fill:var(--color7, #8ec2f2)"
        d="M28.101 2.626a1.174 1.174 0 0 0-.575-.329l-.008-.002a1.153 1.153 0 0 0-.67.05l.008-.003L.782 12.203a1.197 1.197 0 0 0-.555.453 1.265 1.265 0 0 0 .002 1.404l-.003-.005c.136.206.329.364.555.453l11.378 4.732 4.551 11.833c.085.225.232.417.422.555s.414.216.645.223c.252-.006.482-.092.669-.233l-.003.002c.196-.146.344-.348.424-.583L28.348 3.92a1.276 1.276 0 0 0-.25-1.296l.001.001zM17.778 27.168l-3.307-8.628 5.677-5.906-1.671-1.737-5.724 5.953-8.249-3.488L25.28 5.559l-7.502 21.609z" />
    </symbol>
    <symbol id="our" viewBox="0 0 32 32">
      <path fill="#ff7b47" style="fill:var(--color4, #ff7b47)"
        d="M18.237 8.772a4.25 4.25 0 1 1-4.736-7.058l.016-.01a4.25 4.25 0 0 1 4.737 7.058l-.015.01h-.002zm-1.18-5.3a2.124 2.124 0 1 0-2.372 3.525l.009.005a2.124 2.124 0 0 0 2.369-3.524l-.006-.004v-.002zm5.547.064a3.15 3.15 0 0 1 1.772-.54c.881 0 1.679.359 2.254.939a3.217 3.217 0 0 1-1.013 5.22l-.021.008a3.16 3.16 0 0 1-3.474-.692 3.203 3.203 0 0 1-.935-2.266c0-1.106.558-2.081 1.409-2.659l.011-.007-.002-.002zm1.02 3.42a1.061 1.061 0 1 0 1.498-1.504 1.079 1.079 0 0 0-.745-.318h-.004a1.06 1.06 0 0 0-1.06 1.06v.008c.001.283.112.555.31.757v-.002zM5.654 25.399h3.847v2.135H5.655a2.532 2.532 0 0 1-1.79-.759 2.564 2.564 0 0 1-.74-1.805v-3.847a2.116 2.116 0 0 1-1.506-.704l-.002-.002A2.134 2.134 0 0 1 1 18.914l.001-.061v.003-4.637a3.832 3.832 0 0 1 1.105-2.673 3.74 3.74 0 0 1 2.633-1.112h3.912a6.158 6.158 0 0 0-1.157 2.094l-.012.044H4.741a1.69 1.69 0 0 0-1.148.493c-.3.309-.468.723-.467 1.154v4.743H5.25v6.005a.413.413 0 0 0 .106.322.503.503 0 0 0 .297.106h.001v.005zm15.513-13.851a3.739 3.739 0 0 0-2.655-1.112h-5.27a3.74 3.74 0 0 0-2.635 1.112 3.828 3.828 0 0 0-1.106 2.671v6.754c-.003.58.218 1.139.616 1.56a2.12 2.12 0 0 0 1.505.705h.004v4.952c0 .703.284 1.34.744 1.802.368.345.841.583 1.366.661l.014.002h4.251a2.447 2.447 0 0 0 2.127-2.423l-.001-.06v.003-4.939c.6-.02 1.135-.288 1.507-.703l.002-.002c.381-.386.617-.917.617-1.503l-.001-.06v.003-6.758a3.81 3.81 0 0 0-1.085-2.669l.001.001v.002zm-1.041 9.53H18v7.098a.432.432 0 0 1-.128.297.361.361 0 0 1-.276.129l-.022-.001h.001-3.421a.447.447 0 0 1-.425-.424v-7.099h-2.104v-6.86c0-.43.168-.845.467-1.153a1.7 1.7 0 0 1 1.148-.493h5.27a1.654 1.654 0 0 1 1.494 1.009l.004.011c.08.199.12.412.117.627v6.86zm5.971 6.454h-3.846v-2.136h3.825a.505.505 0 0 0 .298-.107l-.001.001a.424.424 0 0 0 .128-.304v-.02.001-6.005h2.125v-4.743c0-.431-.167-.845-.468-1.154a1.687 1.687 0 0 0-1.144-.493H24.27a6.174 6.174 0 0 0-1.178-2.147l.008.009h3.91c.991.01 1.938.409 2.636 1.112a3.832 3.832 0 0 1 1.105 2.672v4.638c0 .58-.22 1.136-.614 1.557a2.229 2.229 0 0 1-1.505.708h-.006v3.848c0 .703-.283 1.341-.74 1.805a2.538 2.538 0 0 1-1.788.759h-.001zM7.376 2.996h-.003a3.176 3.176 0 0 0-2.934 1.959l-.008.021a3.16 3.16 0 0 0-.241 1.223c0 .885.356 1.686.933 2.269a3.18 3.18 0 0 0 5.44-2.239v-.028.001a3.214 3.214 0 0 0-1.946-2.953l-.021-.008a3.142 3.142 0 0 0-1.22-.245zm0 4.275h-.003a1.06 1.06 0 0 1-1.06-1.06v-.01a1.072 1.072 0 0 1 1.063-1.068A1.082 1.082 0 0 1 8.438 6.2v.001a1.071 1.071 0 0 1-1.062 1.07z" />
    </symbol>
    <symbol id="phone-big" viewBox="0 0 32 32">
      <path fill="#0d5c63" style="fill:var(--color2, #0d5c63)"
        d="M25.302 17.331a1.677 1.677 0 0 0-2.38 0l-2.684 2.684c-1.244-.37-3.566-1.212-5.037-2.684s-2.314-3.794-2.684-5.038l2.684-2.684c.305-.304.494-.725.494-1.19s-.189-.886-.494-1.19L8.466.494C8.162.189 7.741 0 7.276 0s-.886.189-1.19.494L1.52 5.06a3.354 3.354 0 0 0-.987 2.381v.037-.002c.039 2.398.674 10.725 7.237 17.289s14.89 7.196 17.29 7.236h.047c.889 0 1.729-.35 2.366-.987l4.566-4.566a1.677 1.677 0 0 0 0-2.38l-6.735-6.736zm-.214 11.301c-2.101-.036-9.291-.599-14.94-6.25C4.48 16.714 3.932 9.5 3.897 7.441l3.376-3.376 4.354 4.354-2.177 2.177a1.679 1.679 0 0 0-.455 1.547l-.002-.011c.04.194 1.028 4.785 3.824 7.58s7.387 3.783 7.58 3.824a1.665 1.665 0 0 0 1.536-.457l2.179-2.177 4.354 4.354-3.378 3.376z" />
    </symbol>
    <symbol id="phone-small" viewBox="0 0 31 32">
      <path fill="#8ec2f2" style="fill:var(--color7, #8ec2f2)"
        d="M24.125 16.611a1.531 1.531 0 0 0-2.172 0l-2.449 2.447c-1.134-.337-3.252-1.106-4.595-2.447-1.343-1.344-2.111-3.461-2.449-4.595l2.449-2.449a1.531 1.531 0 0 0 0-2.172L8.765 1.251a1.531 1.531 0 0 0-2.172 0L2.428 5.415a3.06 3.06 0 0 0-.9 2.171v.035-.002c.035 2.188.614 9.784 6.601 15.772 5.988 5.987 13.585 6.564 15.773 6.601h.042c.812 0 1.578-.32 2.158-.9l4.166-4.165a1.531 1.531 0 0 0 0-2.172l-6.144-6.145zM23.93 26.92c-1.916-.032-8.475-.547-13.628-5.701-5.171-5.171-5.67-11.752-5.701-13.631l3.08-3.08 3.972 3.972-1.988 1.987a1.531 1.531 0 0 0-.416 1.41l-.002-.01c.037.177.938 4.365 3.488 6.915 2.55 2.551 6.738 3.452 6.915 3.489a1.52 1.52 0 0 0 1.402-.417l1.989-1.985 3.972 3.972-3.082 3.08z" />
    </symbol>
    <symbol id="products" viewBox="0 0 33 32">
      <path fill="#0d5c63" style="fill:var(--color2, #0d5c63)"
        d="M16.56 15.201c2.87 0 5.101-2.33 5.101-5.19s-2.338-5.084-5.207-5.084a5.094 5.094 0 0 0-5.102 5.084c0 2.86 2.338 5.19 5.208 5.19zm-.106-8.155c.107 0 .107 0 0 0 1.7 0 3.082 1.377 3.082 3.071s-1.381 2.966-3.082 2.966h-.01a2.965 2.965 0 0 1-2.965-2.965v-.001c0-1.695 1.381-3.071 2.975-3.071zm15.835 7.52a10.545 10.545 0 0 0-7.44-2.648H24c-.213.847-.531 1.589-.956 2.224.637-.106 1.169-.106 1.807-.106 2.019-.106 4.038.53 5.633 1.695v7.627h2.125v-8.473l-.319-.318zm-9.883-9.427c.531-1.271 2.019-1.907 3.401-1.377 1.275.529 1.913 2.013 1.381 3.389-.425.953-1.381 1.589-2.338 1.589-.213 0-.531 0-.744-.106.107.53.107 1.06.107 1.483v.635c.213 0 .425.106.637.106 2.657 0 4.783-2.119 4.783-4.66 0-2.649-2.125-4.767-4.676-4.767-1.7 0-3.189.847-4.039 2.33.531.317 1.063.741 1.488 1.377zM10.29 14.248c-.425-.635-.744-1.377-.956-2.224h-.851a10.915 10.915 0 0 0-7.456 2.556l.017-.014-.319.318v8.473H2.85V15.73c1.7-1.165 3.613-1.8 5.633-1.694.637 0 1.275.106 1.807.211zm-1.807-3.495c.213 0 .425 0 .637-.107v-.635c0-.529 0-1.059.107-1.483-.213.106-.531.106-.744.106-1.382 0-2.551-1.165-2.551-2.542S7.101 3.55 8.483 3.55c1.063 0 2.019.635 2.444 1.589.425-.53 1.063-1.059 1.594-1.483C11.14 1.431 8.27.689 6.038 2.067S3.062 6.304 4.444 8.528c.85 1.377 2.338 2.225 4.039 2.225zm16.792 10.168-.213-.318c-2.125-2.33-5.101-3.707-8.289-3.601-3.189-.106-6.271 1.271-8.396 3.601l-.213.318v8.05c0 .953.744 1.8 1.807 1.8h13.603c.957 0 1.807-.847 1.807-1.8v-8.05h-.107zm-2.125 7.732H10.29v-6.991c1.701-1.695 4.039-2.542 6.483-2.542 2.338-.107 4.676.847 6.376 2.542v6.991z" />
    </symbol>
    <symbol id="servicessvg" viewBox="0 0 33 32">
      <path fill="#0d5c63" style="fill:var(--color2, #0d5c63)"
        d="M29.433 14.855a3.134 3.134 0 0 0-1.142.223l.021-.007-3.827-3.19c.097-.325.155-.699.161-1.086v-.003c0-2.252-1.777-4.062-3.989-4.062s-3.99 1.81-3.99 4.062c0 .644.16 1.243.419 1.783l-4.643 5.587a3.122 3.122 0 0 0-.561-.057h-.002c-.285 0-.555.049-.817.12l-4.09-4.165c.072-.265.12-.54.12-.83 0-1.801-1.424-3.25-3.192-3.25S.71 11.429.71 13.229c0 1.801 1.423 3.25 3.191 3.25.286 0 .555-.049.817-.12l4.09 4.165a3.088 3.088 0 0 0-.12.829v.002c0 1.8 1.424 3.25 3.192 3.25s3.192-1.45 3.192-3.25a3.29 3.29 0 0 0-.197-1.091l4.649-5.593a3.98 3.98 0 0 0 1.133.184 3.89 3.89 0 0 0 1.829-.467l-.021.01 3.829 3.19c-.03.171-.047.343-.051.517 0 1.8 1.423 3.25 3.192 3.25s3.191-1.449 3.191-3.25c0-1.8-1.423-3.25-3.191-3.25z" />
    </symbol>
    <symbol id="stripe" viewBox="0 0 112 32">
      <path fill="#737373" style="fill:var(--color1, #737373)"
        d="m37.622 2.823-5.185 1.09-.025 16.859c0 3.114 2.372 5.127 5.522 5.127 1.749 0 3.03-.32 3.736-.699v-4.002c-.682.272-4.036 1.243-4.036-1.859v-7.482h4.036V7.381h-4.037l-.012-4.558zm10.672 6.109L47.97 7.38h-4.599v18.138h5.306V13.312c1.258-1.634 3.377-1.314 4.06-1.101V7.382c-.719-.249-3.198-.711-4.444 1.55zM59.348.372l-5.342 1.124v4.287l5.342-1.125V.372zM23.239 12.72c0-.817.694-1.136 1.808-1.148 1.616 0 3.676.485 5.293 1.35V7.973c-1.761-.687-3.521-.959-5.282-.959-4.312 0-7.186 2.225-7.186 5.943 0 5.825 8.084 4.878 8.084 7.388 0 .97-.851 1.29-2.036 1.29-1.761 0-4.036-.722-5.821-1.682v4.736c1.713.751 3.709 1.191 5.807 1.196h.002c4.419 0 7.461-1.871 7.461-5.659 0-6.263-8.132-5.139-8.132-7.507zm71.273 3.943c0-5.387-2.635-9.637-7.69-9.637s-8.132 4.25-8.132 9.601c0 6.335 3.629 9.258 8.803 9.258 2.538 0 4.443-.569 5.892-1.362v-3.954c-1.45.722-3.114 1.16-5.222 1.16-2.072 0-3.893-.722-4.132-3.185h10.408c.024-.272.072-1.373.072-1.883zm-10.528-1.989c0-2.368 1.474-3.362 2.803-3.362 1.305 0 2.695.994 2.695 3.362h-5.497zM70.463 7.026c-2.084 0-3.425.97-4.167 1.645l-.275-1.302h-4.684v24.247l5.317-1.113.012-5.944c.766.557 1.905 1.326 3.761 1.326 3.809 0 7.282-2.746 7.282-9.424.012-6.11-3.51-9.436-7.246-9.436zm-1.27 14.503c-1.245 0-1.988-.45-2.503-.995l-.036-7.814c.551-.604 1.317-1.042 2.538-1.042 1.941 0 3.282 2.155 3.282 4.901.012 2.83-1.305 4.949-3.282 4.949zm-15.174 3.989h5.341V7.381h-5.341v18.138z" />
    </symbol>
    <symbol id="twitter" viewBox="0 0 38 32">
      <path fill="#21a6df" style="fill:var(--color8, #21a6df)"
        d="M38.4 3.944a15.171 15.171 0 0 1-4.452 1.228l-.074.007A7.977 7.977 0 0 0 37.316.84l.016-.056a15.1 15.1 0 0 1-4.889 1.911l-.099.017A7.878 7.878 0 0 0 29.778.861l-.05-.02a7.629 7.629 0 0 0-3.112-.653h-.019.001c-4.357 0-7.861 3.584-7.861 7.981 0 .618.074 1.235.194 1.829A22.223 22.223 0 0 1 2.757 1.69l-.034-.044a7.92 7.92 0 0 0-1.069 3.998v.033-.002a8.012 8.012 0 0 0 3.504 6.648 7.82 7.82 0 0 1-3.593-1.036l.038.02v.099c0 3.878 2.701 7.091 6.302 7.83-.62.171-1.333.27-2.069.272h-.001c-.512 0-.995-.051-1.485-.122 1.015 3.177 3.906 5.453 7.339 5.534h.009a15.518 15.518 0 0 1-9.738 3.41h-.024.001a16.02 16.02 0 0 1-1.899-.098c3.393 2.243 7.557 3.578 12.033 3.578h.043-.002c14.456 0 22.368-12.154 22.368-22.702 0-.346 0-.691-.024-1.038a17.02 17.02 0 0 0 3.941-4.126z" />
    </symbol>
    <symbol id="youtube" viewBox="0 0 43 32">
      <path fill="#e42f08" style="fill:var(--color9, #e42f08)"
        d="M41.724 5.212a5.682 5.682 0 0 0-1.38-2.509l.002.003a5.275 5.275 0 0 0-2.345-1.438l-.037-.009C34.645.315 21.312.315 21.312.315s-13.333 0-16.652.942a5.298 5.298 0 0 0-2.38 1.446l-.002.002A5.659 5.659 0 0 0 .9 5.212c-.573 3.133-.901 6.738-.901 10.42l.001.387v-.02l-.001.377c0 3.678.327 7.281.954 10.779l-.055-.368a5.654 5.654 0 0 0 1.378 2.507 5.276 5.276 0 0 0 2.382 1.447c3.317.944 16.652.944 16.652.944s13.333 0 16.652-.944a5.298 5.298 0 0 0 2.38-1.446l.002-.002a5.662 5.662 0 0 0 1.378-2.505c.619-3.559.921-7.17.898-10.788l.001-.377c0-3.679-.327-7.281-.954-10.779l.055.368zM17.049 22.724V9.277l11.067 6.72-11.067 6.724z" />
    </symbol>
  </defs>
</svg>